<svg xmlns="http://www.w3.org/2000/svg" width="48" height="48" viewBox="0 0 48 48">
  <!-- Sky top -->
  <rect x="0" y="0" width="48" height="16" fill="#6ab0f5"/>
  <!-- Grass layer -->
  <rect x="0" y="16" width="48" height="8" fill="#5d9e3c"/>
  <!-- Dirt bottom -->
  <rect x="0" y="24" width="48" height="24" fill="#8B5E3C"/>

  <!-- Dirt pixel texture dots -->
  <rect x="6"  y="27" width="3" height="3" fill="#7a5230"/>
  <rect x="14" y="30" width="3" height="3" fill="#7a5230"/>
  <rect x="22" y="27" width="3" height="3" fill="#7a5230"/>
  <rect x="30" y="31" width="3" height="3" fill="#7a5230"/>
  <rect x="38" y="28" width="3" height="3" fill="#7a5230"/>
  <rect x="10" y="36" width="3" height="3" fill="#7a5230"/>
  <rect x="26" y="37" width="3" height="3" fill="#7a5230"/>
  <rect x="34" y="34" width="3" height="3" fill="#7a5230"/>
  <rect x="4"  y="40" width="3" height="3" fill="#7a5230"/>
  <rect x="42" y="38" width="3" height="3" fill="#6b4828"/>

  <!-- Grass top detail (lighter patches) -->
  <rect x="4"  y="16" width="4" height="4" fill="#6bbf42"/>
  <rect x="12" y="17" width="3" height="3" fill="#4e8f2c"/>
  <rect x="20" y="16" width="5" height="4" fill="#6bbf42"/>
  <rect x="28" y="17" width="3" height="3" fill="#4e8f2c"/>
  <rect x="34" y="16" width="4" height="4" fill="#6bbf42"/>
  <rect x="42" y="17" width="4" height="3" fill="#4e8f2c"/>

  <!-- Small grass blades on top -->
  <rect x="2"  y="13" width="2" height="4" fill="#5d9e3c"/>
  <rect x="8"  y="12" width="2" height="5" fill="#4e8f2c"/>
  <rect x="16" y="13" width="2" height="4" fill="#5d9e3c"/>
  <rect x="24" y="11" width="2" height="6" fill="#6bbf42"/>
  <rect x="32" y="12" width="2" height="5" fill="#4e8f2c"/>
  <rect x="40" y="13" width="2" height="4" fill="#5d9e3c"/>
  <rect x="45" y="12" width="2" height="5" fill="#6bbf42"/>
</svg>
